<?xml version="1.0" encoding="utf-8"?>
<!-- Generator: Adobe Illustrator 17.1.0, SVG Export Plug-In . SVG Version: 6.00 Build 0)  -->
<!DOCTYPE svg PUBLIC "-//W3C//DTD SVG 1.1//EN" "http://www.w3.org/Graphics/SVG/1.1/DTD/svg11.dtd">
<svg version="1.1" id="Layer_1" xmlns="http://www.w3.org/2000/svg" xmlns:xlink="http://www.w3.org/1999/xlink" x="0px" y="0px"
	 viewBox="0 0 334.5 249.6" enable-background="new 0 0 334.5 249.6" xml:space="preserve">
<ellipse fill="#7EC2EB" cx="36.5" cy="63.3" rx="24.5" ry="24.8"/>
<ellipse fill="#67B2E2" cx="129.5" cy="63.3" rx="24.5" ry="24.8"/>
<ellipse fill="#5A9ECC" cx="218.5" cy="63.3" rx="24.5" ry="24.8"/>
<ellipse fill="#4F8AB2" cx="24.5" cy="31.3" rx="24.5" ry="24.8"/>
<ellipse fill="#447799" cx="117.5" cy="31.3" rx="24.5" ry="24.8"/>
<ellipse fill="#39637F" cx="206.5" cy="31.3" rx="24.5" ry="24.8"/>
<path fill="#5C9ED5" d="M58.8,249.5H39.6c-16.6,0-30.1-7.6-30.1-16.9v-94.9h49.3V249.5z"/>
<path fill="#5C9ED5" d="M241.1,200.3v19.2c0,16.6-13,30.1-29,30.1H49.4v-49.3H241.1z"/>
<path fill="#5C9ED5" d="M241.2,211.1h-19.2c-16.6,0-30.1-5-30.1-11.1v-62.2h49.3V211.1z"/>
<rect x="192" y="137.7" fill="#5C9ED5" width="142.5" height="49.4"/>
<text transform="matrix(1 0 0 1 0 63.2794)" fill="#FFFFFF" font-family="'Menlo-Bold'" font-size="72">F</text>
<text transform="matrix(1 0 0 1 93 63.2794)" fill="#FFFFFF" font-family="'Menlo-Bold'" font-size="72">E</text>
<text transform="matrix(1 0 0 1 186.5 62.2794)" fill="#FFFFFF" font-family="'Menlo-Bold'" font-size="72">B</text>
</svg>
